name Walk6.mot
datacolumns 19
datarows 25
range 4.79400000 4.81800000
endheader

                time	   L_ground_force_vx	   L_ground_force_vy	   L_ground_force_vz	   L_ground_force_px	   L_ground_force_py	   L_ground_force_pz	   R_ground_force_vx	   R_ground_force_vy	   R_ground_force_vz	   R_ground_force_px	   R_ground_force_py	   R_ground_force_pz	   L_ground_torque_x	   L_ground_torque_y	   L_ground_torque_z	   R_ground_torque_x	   R_ground_torque_y	   R_ground_torque_z	
          4.79400000	          0.00000000	          0.00000000	          0.00000000	          0.00000000	          0.00000000	          0.00000000	          3.51390572	         76.06927804	          2.03691587	          0.28419958	          0.00000000	          0.10263259	          0.00000000	          0.00000000	          0.00000000	          0.00000000	         -3.94458143	          0.00000000	
          4.79500000	          0.00000000	          0.00000000	          0.00000000	          0.00000000	          0.00000000	          0.00000000	          1.98811136	         71.12202094	          1.95597624	          0.28620025	          0.00000000	          0.10131709	          0.00000000	          0.00000000	          0.00000000	          0.00000000	         -3.69112416	          0.00000000	
          4.79600000	          0.00000000	          0.00000000	          0.00000000	          0.00000000	          0.00000000	          0.00000000	          0.51269848	         66.54331203	          1.87341407	          0.28860754	          0.00000000	          0.09942259	          0.00000000	          0.00000000	          0.00000000	          0.00000000	         -3.43399133	          0.00000000	
          4.79700000	          0.00000000	          0.00000000	          0.00000000	          0.00000000	          0.00000000	          0.00000000	         -0.90657119	         62.36173394	          1.77624298	          0.29104125	          0.00000000	          0.09717127	          0.00000000	          0.00000000	          0.00000000	          0.00000000	         -3.17574639	          0.00000000	
          4.79800000	          0.00000000	          0.00000000	          0.00000000	          0.00000000	          0.00000000	          0.00000000	         -2.25706194	         58.62902483	          1.66583937	          0.29314632	          0.00000000	          0.09512477	          0.00000000	          0.00000000	          0.00000000	          0.00000000	         -2.92541265	          0.00000000	
          4.79900000	          0.00000000	          0.00000000	          0.00000000	          0.00000000	          0.00000000	          0.00000000	         -3.51824763	         55.37738718	          1.56033306	          0.29505192	          0.00000000	          0.09383528	          0.00000000	          0.00000000	          0.00000000	          0.00000000	         -2.69228191	          0.00000000	
          4.80000000	          0.00000000	          0.00000000	          0.00000000	          0.00000000	          0.00000000	          0.00000000	         -4.67169279	         52.57952987	          1.48962728	          0.29733155	          0.00000000	          0.09353106	          0.00000000	          0.00000000	          0.00000000	          0.00000000	         -2.47866259	          0.00000000	
          4.80100000	          0.00000000	          0.00000000	          0.00000000	          0.00000000	          0.00000000	          0.00000000	         -5.71745879	         50.14589000	          1.48120410	          0.30029753	          0.00000000	          0.09394480	          0.00000000	          0.00000000	          0.00000000	          0.00000000	         -2.28050937	          0.00000000	
          4.80200000	          0.00000000	          0.00000000	          0.00000000	          0.00000000	          0.00000000	          0.00000000	         -6.68137149	         47.95014906	          1.54640439	          0.30344385	          0.00000000	          0.09438315	          0.00000000	          0.00000000	          0.00000000	          0.00000000	         -2.09561305	          0.00000000	
          4.80300000	          0.00000000	          0.00000000	          0.00000000	          0.00000000	          0.00000000	          0.00000000	         -7.60381507	         45.86085893	          1.67771397	          0.30582789	          0.00000000	          0.09411531	          0.00000000	          0.00000000	          0.00000000	          0.00000000	         -1.92641326	          0.00000000	
          4.80400000	          0.00000000	          0.00000000	          0.00000000	          0.00000000	          0.00000000	          0.00000000	         -8.52156778	         43.78733742	          1.85255281	          0.30698137	          0.00000000	          0.09278884	          0.00000000	          0.00000000	          0.00000000	          0.00000000	         -1.77579583	          0.00000000	
          4.80500000	          0.00000000	          0.00000000	          0.00000000	          0.00000000	          0.00000000	          0.00000000	         -9.45361297	         41.72933896	          2.03450326	          0.30728956	          0.00000000	          0.09059438	          0.00000000	          0.00000000	          0.00000000	          0.00000000	         -1.64465807	          0.00000000	
          4.80600000	          0.00000000	          0.00000000	          0.00000000	          0.00000000	          0.00000000	          0.00000000	        -10.39026076	         39.76455236	          2.17859366	          0.30741790	          0.00000000	          0.08813031	          0.00000000	          0.00000000	          0.00000000	          0.00000000	         -1.53155459	          0.00000000	
          4.80700000	          0.00000000	          0.00000000	          0.00000000	          0.00000000	          0.00000000	          0.00000000	        -11.29004720	         37.95938518	          2.24979342	          0.30757506	          0.00000000	          0.08599629	          0.00000000	          0.00000000	          0.00000000	          0.00000000	         -1.43349279	          0.00000000	
          4.80800000	          0.00000000	          0.00000000	          0.00000000	          0.00000000	          0.00000000	          0.00000000	        -12.09370642	         36.29654815	          2.24410939	          0.30751695	          0.00000000	          0.08444098	          0.00000000	          0.00000000	          0.00000000	          0.00000000	         -1.34848917	          0.00000000	
          4.80900000	          0.00000000	          0.00000000	          0.00000000	          0.00000000	          0.00000000	          0.00000000	        -12.75261210	         34.70300368	          2.19740518	          0.30711292	          0.00000000	          0.08342829	          0.00000000	          0.00000000	          0.00000000	          0.00000000	         -1.27396297	          0.00000000	
          4.81000000	          0.00000000	          0.00000000	          0.00000000	          0.00000000	          0.00000000	          0.00000000	        -13.25220995	         33.13441765	          2.16861549	          0.30673381	          0.00000000	          0.08281618	          0.00000000	          0.00000000	          0.00000000	          0.00000000	         -1.20411170	          0.00000000	
          4.81100000	          0.00000000	          0.00000000	          0.00000000	          0.00000000	          0.00000000	          0.00000000	        -13.60998488	         31.60302902	          2.19159660	          0.30714606	          0.00000000	          0.08228168	          0.00000000	          0.00000000	          0.00000000	          0.00000000	         -1.13648572	          0.00000000	
          4.81200000	          0.00000000	          0.00000000	          0.00000000	          0.00000000	          0.00000000	          0.00000000	        -13.85116585	         30.14209776	          2.24568192	          0.30911700	          0.00000000	          0.08151645	          0.00000000	          0.00000000	          0.00000000	          0.00000000	         -1.07559794	          0.00000000	
          4.81300000	          0.00000000	          0.00000000	          0.00000000	          0.00000000	          0.00000000	          0.00000000	        -13.98362278	         28.76542492	          2.28407368	          0.31285534	          0.00000000	          0.08059569	          0.00000000	          0.00000000	          0.00000000	          0.00000000	         -1.02541702	          0.00000000	
          4.81400000	          0.00000000	          0.00000000	          0.00000000	          0.00000000	          0.00000000	          0.00000000	        -13.97703233	         27.41180491	          2.26590894	          0.31763807	          0.00000000	          0.07963609	          0.00000000	          0.00000000	          0.00000000	          0.00000000	         -0.98814115	          0.00000000	
          4.81500000	          0.00000000	          0.00000000	          0.00000000	          0.00000000	          0.00000000	          0.00000000	        -13.74173420	         25.87687452	          2.15903368	          0.32236653	          0.00000000	          0.07839149	          0.00000000	          0.00000000	          0.00000000	          0.00000000	         -0.96623601	          0.00000000	
          4.81600000	          0.00000000	          0.00000000	          0.00000000	          0.00000000	          0.00000000	          0.00000000	        -13.12317436	         23.81626594	          1.94558478	          0.32639493	          0.00000000	          0.07656090	          0.00000000	          0.00000000	          0.00000000	          0.00000000	         -0.95354994	          0.00000000	
          4.81700000	          0.00000000	          0.00000000	          0.00000000	          0.00000000	          0.00000000	          0.00000000	        -11.93372255	         20.88110091	          1.63373026	          0.32934311	          0.00000000	          0.07414909	          0.00000000	          0.00000000	          0.00000000	          0.00000000	         -0.92574483	          0.00000000	
          4.81800000	          0.00000000	          0.00000000	          0.00000000	          0.00000000	          0.00000000	          0.00000000	        -10.03808937	         16.92654963	          1.25528757	          0.33079552	          0.00000000	          0.07146160	          0.00000000	          0.00000000	          0.00000000	          0.00000000	         -0.84494918	          0.00000000	
